<?xml version="1.0" encoding="utf-8"?>
<!-- Generator: Adobe Illustrator 25.4.1, SVG Export Plug-In . SVG Version: 6.00 Build 0)  -->
<svg version="1.1" id="图层_1" xmlns="http://www.w3.org/2000/svg" xmlns:xlink="http://www.w3.org/1999/xlink" x="0px" y="0px"
	 width="1427px" height="172px" viewBox="0 0 1427 172" style="enable-background:new 0 0 1427 172;" xml:space="preserve">
<style type="text/css">
	.st0{fill-rule:evenodd;clip-rule:evenodd;fill:#FFFFFF;}
	.st1{fill:#9CCC64;}
	.st2{fill-rule:evenodd;clip-rule:evenodd;fill:#9CCC64;}
	.st3{fill:#9CCC64;stroke:#9CCC64;stroke-width:3;}
</style>
<g id="Logo文字">#
	<g id="Logo" transform="translate(50.000000, 57.000000)">
		<path id="Bootom" class="st0" d="M23-57L96-4.1v89.3H29.5L23,80.7l-6.5,4.5H-50V-4.1L23-57z"/>
		
			<g id="路径" transform="translate(72.070064, 72.518919) scale(-1, 1) rotate(-180.000000) translate(-72.070064, -72.518919) translate(7.439490, 9.297297)">
			<path class="st1" d="M-50,136.3V57H6.7c-3.3,4.4-6.2,8.5-8.6,12.2C-9.1,79.9-12,90-11.9,99.9c0.1,6.8,1.8,13.6,5.2,20.3
				c2.4,4.8,6.1,8.9,9.9,12.7c4.6,4.6,8.4,6.2,11.4,6.2c2.7,0,7.7-2.5,12.3-6.9c4.4-4.2,8.4-10.6,10.5-15c2.1-4.4,3.5-9.2,3.8-14.2
				c0.2-4.3,0-6.4-0.6-10.7c-0.2-1.3-1.2-5.6-1.9-7.9c-0.5-1.8-1.6-5.3-3.3-10.3l-6.1,1.8c0.6,2.3,1.6,5.4,2.9,9.3
				c0.1,0.4,0.5,1.8,0.6,2.1c0.5,2,1,4.1,1.3,6.2c0.4,3.2,0.4,6.2,0.4,7.9c-0.1,3.1-0.8,7.4-2.3,11.2c-2.4,6-6.1,11.4-10,15
				c-2.8,2.5-5.4,3.4-7.6,3.2c-1.3-0.1-2.1-0.5-3.5-1.2c-3.2-1.4-7.6-6-10.6-12.4c-2.9-6.1-4.1-13.6-4.1-18.6c0-4.8,1-10.5,3.2-15.8
				c3.3-8.2,9.2-15.1,16.3-19.9c2.4-1.7,4.2-2.9,5.3-3.5c1.3-0.7,3.2-1.5,5.8-2.3h52.3L79,97.8c0.1,8.5,0.2,15.6,0.2,21.3
				c0.1,7.7,0,13.4,0,17.3l-64.6,47.1L-50,136.3z"/>
		</g>
		<path id="B" class="st2" d="M52.3,115v-14.9h14.9V115H52.3z M56.1,111.3h9.2v-2.5h-9.2C56.1,108.8,56.1,111.3,56.1,111.3z
			 M56.1,105.7h9.2v-2.2h-9.2C56.1,103.5,56.1,105.7,56.1,105.7z"/>
		<path id="E" class="st2" d="M31.8,100.1v3.4H20.1v2.2h6.3v3.1h-6.3v2.5h11.7v3.7H17v-14.9C17,100.1,31.8,100.1,31.8,100.1z"/>
		<path id="L" class="st2" d="M-15.6,115v-14.9h3.4v11.2h11.5v3.7C-0.7,115-15.6,115-15.6,115z"/>
	</g>
	<g id="建筑节能设计基础数据共享平台" transform="translate(231.999023, 102.906250)">
		<path id="形状" class="st3" d="M3.6-19.5v11.1H13c0.7-1.4,2.3-3.4,4.9-5.9c-3.2,0.5-4.9-0.3-4.9-2.4v-2.8
			C13-19.5,3.6-19.5,3.6-19.5z M3.6-29.5v8.3H13v-8.3H3.6z M3.6-40.7v9H13v-9H3.6z M-4.7,14.6v-9h-9.7c-0.5,0.2-2.3,0.3-5.6,0.3
			l-2.1-2.4c0.9,0.2,1.9,0.3,2.8,0.3h14.6V-6.6H-11c-1.9,0.2-3.6,0.3-5.2,0.3l-2.4-2.4c0.9,0.2,2,0.3,3.1,0.3h10.8v-11.1h-7
			c-0.5,0.2-2.3,0.3-5.6,0.3l-2.1-2.4c0.9,0.2,1.9,0.3,2.8,0.3h11.8v-8.3h-12.5c-2.1,0-3.9,0-5.6,0L-25-32c0.9,0.2,1.9,0.3,2.8,0.3
			h17.4v-9h-8h-4.9l-1.7-2.4c0.9,0.2,1.9,0.3,2.8,0.3h11.8v-11.8c5.1,0,8.3,0.2,9.7,0.7c0.7,0.7,0.7,1.3,0,1.7c-0.5,0.7-0.9,1-1.4,1
			v8.3H12c0.2-0.2,0.7-0.8,1.4-1.7c0.9-1.2,1.6-1.7,2.1-1.7c3,0.7,6,2.3,9,4.9c0,0.5-0.6,1.2-1.7,2.1c-0.2,0.2-0.3,0.3-0.3,0.3v7.3
			h1.7c1.2-1.6,2.7-3.4,4.5-5.2c0.2-0.2,0.6-0.2,1,0c3.2,2.8,5.3,4.9,6.3,6.3c-0.2,0.5-0.5,0.8-0.7,1H22.4v12.9
			c-0.2,0.9-1.2,1.6-2.8,2.1c3.7,2.8,6.3,5,7.6,6.6c0.2,0.9,0.1,1.4-0.3,1.4H3.6V3.8h12.2c1.6-2.5,3.4-4.6,5.2-6.3
			c0.2-0.2,0.6-0.2,1,0c3,1.9,5.7,4.1,8,6.6c0.2,0.7,0.1,1.2-0.3,1.4H3.6v7.3C0.4,16.4-2.4,16.9-4.7,14.6z M24.8,28.2H10.6
			c-19.5,0-33.4-4.2-41.7-12.5C-36,21-41.9,25-48.9,27.8c-0.7,0-1-0.1-1-0.3c-0.2-0.2,0-0.5,0.7-0.7c6-3.9,10.7-9.3,13.9-16
			c-4.2-5.8-7.3-13.9-9.4-24.3c0.2-0.5,0.7-0.6,1.4-0.3c2.3,8,5.8,14.4,10.4,19c2.3-7,3.4-14.3,3.1-21.9h-6.6
			c-1.2,1.4-2.2,2.1-3.1,2.1c-0.5,0.2-0.9,0.1-1.4-0.3c-3-2.1-5.1-3.8-6.3-5.2c-0.5-0.5-0.5-0.9,0-1.4c0.5,0,1.6-0.6,3.5-1.7l9-22.2
			h-7c-1.9,0.2-3.6,0.3-5.2,0.3l-2.4-2.4c0.9,0.2,2,0.3,3.1,0.3h11.5c0.2-0.2,0.5-0.7,0.7-1.4s0.6-1.3,1-1.7
			c0.5-0.2,0.9-0.5,1.4-0.7c3.2,1.6,6.1,3.1,8.7,4.5c0.5,0.5,0.5,1,0,1.7c-1.6,1.2-2.7,1.9-3.1,2.1l-10.4,24.3h5.6
			c0.9-1.4,2.2-2.7,3.8-3.8c0.2,0,0.7,0.1,1.4,0.3c-0.5-0.5-0.3-0.5,0.3,0c1.9,0.9,3.9,2.2,6.3,3.8c0.2,0.7,0.2,1.3,0,1.7
			s-0.6,0.9-1,1.4c-0.7,0.7-1.2,1.3-1.4,1.7c-0.7,9.7-2.8,17.5-6.3,23.3c7.4,5.3,17.3,8,29.6,8h13.9c6.3,0,12.4-0.8,18.4-2.4
			c0.5,0.2,0.6,0.7,0.3,1.4c-3.5,1.2-5.1,4.3-4.9,9.4c-0.2,0.2-0.5,0.6-0.7,1C27.6,27.9,26.2,28.2,24.8,28.2z"/>
		<path id="形状_00000084519003973400460920000000471005745007979199_" class="st3" d="M53,8v-25.7h-3.5c-0.5,0.2-2.4,0.3-5.9,0.3
			l-1.7-2.4c0.9,0.2,1.9,0.3,2.8,0.3H62c2.1-2.5,3.6-4.4,4.5-5.6c0.5,0,0.8,0,1,0c2.8,2.3,4.9,4.4,6.3,6.3c0,0.7-0.2,1-0.7,1h-9.4
			c0,0.5-0.2,0.8-0.7,1c-0.2,0.2-0.7,0.6-1.4,1c-0.5,0.5-0.7,0.7-0.7,0.7V6.6c0.9,0,1.9-0.1,2.8-0.3c3.7-0.9,6.5-1.5,8.3-1.7
			c0.2,0,0.5,0.2,0.7,0.7c0,0.5-0.1,0.8-0.3,1C68,8.8,58.6,13.9,44.2,21.6c-0.7,0.2-1.2,0.2-1.4,0c-0.2-0.7-0.9-2-2.1-3.8
			c-0.9-2.3-1.6-4.3-2.1-5.9c-0.2-0.7,0-1.3,0.7-1.7C40.8,9.9,45.3,9.2,53,8z M84.3-7.6V-1c0.2,13.9-7.8,23.6-24,29.2
			c-1.2-0.5-1.4-1.2-0.7-2.1C70.3,20.3,75.7,11.3,75.9-1v-23c3,0.9,5.8,2.1,8.3,3.5h12.9c1.6-2.3,2.9-3.5,3.8-3.5
			c3.2,0.9,6.4,2.5,9.4,4.9c0,0.5-0.6,1.2-1.7,2.1c-0.7,0.9-1,1.4-1,1.4V15c0.2,2.1,1.2,3.1,2.8,3.1h3.1c2.8,0,5.6-4.6,8.3-13.9
			c0.5-0.7,1.2-0.6,2.1,0.3c-2.1,8.1-2.3,13.1-0.7,14.9c0.5,0.7,0.7,1.5,0.7,2.4c-0.2,2.8-2.9,4.3-8,4.5h-10.4
			c-3.9-0.7-6-2.5-6.3-5.6v-39.3H84.3V-8c0.2-0.2,0.5-0.5,0.7-0.7c6.7,2.8,10.5,7,11.5,12.5c0,2.8-1.4,4.6-4.2,5.6
			c-3,0.2-4.8-1-5.2-3.8c0-0.2,0-0.7,0-1.4c0.2-0.7,0.3-1.4,0.3-2.1c0-3.2-0.9-6.4-2.8-9.4C84.4-7.3,84.3-7.4,84.3-7.6z M58.2-38.9
			h-3.8c-3.7,5.3-8.1,10.7-13.2,16c-0.9,0.2-1.3-0.1-1-1c5.3-9.3,8.9-19.6,10.8-30.9c0-0.2,0.3-0.5,1-0.7c3,0.9,6.8,2.3,11.5,4.2
			c0.2,0.5,0.2,0.8,0,1c-0.7,0.7-1.6,1.3-2.8,1.7c-1.4,2.5-3.1,5.2-5.2,8h12.9c0.2,0,1.3-1.2,3.1-3.5c0.9-1.4,1.6-2.3,2.1-2.8
			c0,0,0.2,0,0.7,0c0.2,0,0.5,0,0.7,0c3.7,2.8,6.3,5,7.6,6.6c0.2,0.9,0.1,1.4-0.3,1.4H62.4c3.5,1.4,5.7,3.5,6.6,6.3
			c0.7,3-0.2,5.2-2.8,6.6c-2.8,0.9-4.6,0-5.6-2.8c-0.5-1.2-0.5-2.3,0-3.5c0-0.2,0-0.5,0-0.7C60.9-34.2,60.1-36.1,58.2-38.9z
			 M95.4-40h-2.8c-2.8,4.4-7,9.2-12.5,14.3c-0.9,0.2-1.3-0.1-1-1c5.6-11.1,8.8-20.6,9.7-28.5c0-0.2,0.3-0.5,1-0.7
			c3,0.9,6.8,2.3,11.5,4.2c0.2,0.5,0.2,0.8,0,1c-0.7,0.7-1.6,1.3-2.8,1.7c-1.4,2.5-2.9,5-4.5,7.3h13.9c2.1-2.5,3.8-4.6,5.2-6.3
			c0.2-0.2,0.6-0.2,1,0c2.8,1.2,5.8,3.4,9,6.6c0.2,0.5,0.3,0.8,0.3,1c-0.2,0.2-0.5,0.3-0.7,0.3H98.5c4.4,2.1,7.1,4.6,8,7.6
			c0.2,3.2-1,5.3-3.8,6.3c-3,0.7-4.8-0.5-5.2-3.5c-0.2-0.2-0.2-0.7,0-1.4s0.3-1.4,0.3-2.1C97.8-34.9,97-37.2,95.4-40z"/>
		<path id="形状_00000076590456973372028070000011955552719887290527_" class="st3" d="M177.1-30.6v-8.3h-15.6v10.1
			c-5.6,3-8.7,2.8-9.4-0.7v-9.4h-15.6c-1.9,0.2-3.7,0.3-5.6,0.3l-2.1-2.4c0.9,0.2,2,0.3,3.1,0.3h20.2v-14.9
			c5.8,0.5,9.7,1.2,11.8,2.1c0.7,0.5,0.7,1,0,1.7c-0.9,0.9-1.7,1.5-2.4,1.7v9.4h15.6v-14.9c5.8,0.5,9.7,1.2,11.8,2.1
			c0.7,0.5,0.7,1,0,1.7c-0.9,0.9-1.7,1.5-2.4,1.7v9.4h9c2.1-3,4.2-5.8,6.3-8.3c0.5,0,0.9,0,1.4,0c4.2,3,7.6,5.7,10.4,8
			c0.5,1.2,0.3,1.9-0.3,2.1h-26.8v9.4c-1.6,1.4-3.8,2.1-6.6,2.1C178-27.7,177.1-28.7,177.1-30.6z M169.8,25.7
			c-0.5,1.4-2.5,2.3-6.3,2.8c-3,0.2-4.5-0.5-4.5-2.1l0.3-41.4v-7.3h-20.2h-5.9l-2.1-2.1c0.9,0.2,2.4,0.3,4.5,0.3h57
			c0,0,0.1-0.2,0.3-0.7c1.9-2.8,3-4.2,3.5-4.2c4.2,1.6,7.9,3.6,11.1,5.9c0,0.7-0.7,1.6-2.1,2.8c-0.7,0.5-0.9,0.7-0.7,0.7v17.7
			c0.7,13-3.2,19.6-11.8,19.8c-0.2,0-0.8,0-1.7,0c-0.5-4.6-4.5-8.1-12.2-10.4c-0.9-0.9-0.8-1.6,0.3-2.1C190,8.2,194.9,6,194.2-1.2
			v-21.2h-22.6c0,0.7-0.8,1.6-2.4,2.8v4.5L169.8,25.7z"/>
		<path id="形状_00000171712257621096792450000008924760943609425338_" class="st3" d="M232.7-5.5v10h13.9v-10H232.7z M232.7-17.7
			v10.4h13.9v-10.4H232.7z M224.4,16.4v-31.3l-0.3-8c-0.2,0-0.1-0.1,0.3-0.3c4.2,1.9,7,3.1,8.3,3.8h11.1c0.9-1.2,2.1-2.3,3.5-3.5
			c0.5-0.2,0.9-0.2,1.4,0c1.4,0.5,3.8,1.7,7.3,3.8c-0.2-0.2,0.1-0.1,1,0.3c0.5,0.2,0.6,0.7,0.3,1.4c-0.2,0.2-0.6,0.6-1,1
			c-0.7,0.9-1.2,1.4-1.4,1.4l0.7,37.5c0,3.2-3.1,5.3-9.4,6.3c-0.7-0.2-1-0.6-1-1c-0.7-4.4-3.4-7.2-8-8.3c-0.5-0.9-0.3-1.4,0.3-1.4
			c5.8,0.5,8.8,0.3,9-0.3V6.6h-13.9v18.1c-2.3,3-5.2,3.8-8.7,2.4c-0.2-0.9-0.2-2.7,0-5.2C224,20.1,224.2,18.2,224.4,16.4z M242.8-49
			l-13.9,13.9c1.6,0.2,4.6,0.5,9,0.7c4.4,0,8.1,0,11.1,0c-0.5-3.9-1.7-6.7-3.8-8.3c-0.5-0.5-0.3-0.8,0.3-1
			c7.9,1.2,12.7,4.3,14.6,9.4c0.5,3.7-0.6,6.5-3.1,8.3c-3,1.6-5.3,0.9-7-2.1c-0.5-0.5-0.8-1.5-1-3.1c0-0.7,0-1.3,0-1.7
			c-12.1,3.5-20.7,6-26.1,7.6c-0.9,0.5-1.5,0.2-1.7-0.7c-0.2-0.2-0.5-0.6-0.7-1c-1.6-3.5-2.4-5.8-2.4-7c-0.5-0.5-0.2-0.9,0.7-1.4
			c6.3-1.4,10.8-7.9,13.6-19.5c0-0.2,0.6-0.5,1.7-0.7c6,1.9,10.1,3.1,12.2,3.8c0,0.2,0.1,0.6,0.3,1c-0.7,0.5-1.3,0.8-1.7,1
			C243.7-49.5,243-49.2,242.8-49z M271.7-35.8v5.2c-0.5,3.2,1.4,4.8,5.6,4.5h5.9c8.1,1.2,12.9-2.9,14.3-12.2c0.2-0.5,0.6-0.5,1,0
			c-0.9,4.9-0.7,8.5,0.7,10.8c0.7,1.4,1,2.5,1,3.5c-0.2,4.2-4.9,6.3-13.9,6.3h-11.1c-8.3,0.5-12.3-2.3-11.8-8.3v-23l-0.3-5.6
			c0,0,0.2-0.1,0.7-0.3c4.4,0.7,7.8,1.6,10.1,2.8c0.2,0.5,0.2,0.9,0,1.4s-0.7,0.8-1.4,1c-0.2,0.2-0.5,0.5-0.7,0.7v11.1
			c4.4-2.8,9.3-6.7,14.6-11.8c0.2-0.2,0.7-0.2,1.4,0c4.6,3.7,7.5,6,8.7,7c0,0.2,0.1,0.6,0.3,1c-2.1,0-3.5,0.1-4.2,0.3
			c-3.5,1.2-8.6,2.5-15.3,4.2C274.7-36.5,272.8-36,271.7-35.8z M295-3.1l-21.6,7.3v8.7c-0.2,3.5,1.6,5.1,5.6,4.9h6.6
			c5.8,0.5,10.2-3.9,13.2-13.2c0.2-0.7,0.5-0.7,0.7,0c-1.4,5.1-1.2,9.3,0.7,12.5c0.5,0.7,0.8,1,1,1c-0.7,4.4-4.4,6.8-11.1,7.3h-12.2
			c-8.8,0-13.1-2.9-12.9-8.7v-32.3c1.9,0.2,3.9,0.5,6.3,0.7c2.1,0.5,3.5,0.8,4.2,1c0.2,0.5,0.2,1,0,1.7c-0.2,0.5-0.8,1-1.7,1.7
			c-0.2,0.2-0.3,0.3-0.3,0.3V2.4c3.5-3.2,8.3-8.2,14.6-14.9c0.5-0.5,0.9-0.6,1.4-0.3c0.5,0.5,1.7,1.6,3.8,3.5
			c2.5,2.3,4.5,3.8,5.9,4.5c0.2,0.7,0.2,1.2,0,1.4c-0.7,0.2-1.4,0.3-2.1,0.3C296.1-3.1,295.4-3.1,295-3.1z"/>
		<path id="形状_00000046322758586966142900000001239334476570916523_" class="st3" d="M343.3-41.4v-3.8l-0.3-8
			c0.2-0.5,0.5-0.7,0.7-0.7c1.4,0.5,3.5,1.6,6.3,3.5c0.2,0,0.5,0,0.7,0h11.8c1.9-2.3,3.2-3.6,4.2-3.8c0.2-0.2,0.8-0.2,1.7,0
			c0,0.2,0.2,0.5,0.7,0.7c3.7,2.1,6.1,3.6,7.3,4.5c0.2,0.5,0.1,0.8-0.3,1c-0.5,0.7-1.3,1.3-2.4,1.7c-0.2,0-0.3,0-0.3,0v11.1
			c-0.2,2.1,1.6,3,5.6,2.8h1.4c0.2,0,1.4-0.2,3.5-0.7c1.2-0.5,2-0.8,2.4-1c3.7,1.2,5.6,3.5,5.6,7c-0.9,2.3-5.4,3.4-13.6,3.1h-4.5
			c-6.5,0-9.7-1.4-9.7-4.2v-20.5h-12.2v7.3c-0.9,12.3-7.3,20.2-19.1,23.6c-1.2-0.2-1.4-0.7-0.7-1.4
			C338.8-23.3,342.6-30.7,343.3-41.4z M364.8,9.1c8.6,5.8,16.8,8.5,24.7,8c0.5,0.2,0.5,0.6,0,1c-3.2,0.5-6.4,3.4-9.4,8.7
			c-0.9,0.5-1.4,0.6-1.4,0.3c-8.3-3.2-15.1-7.4-20.2-12.5c-10.7,7.6-21.3,11.9-32,12.9c-0.7-0.5-0.9-0.9-0.7-1.4
			c11.8-4.2,21.3-9.9,28.5-17c-4.2-5.6-7.4-12.5-9.7-20.9h-4.9l-2.8-2.1c0.7,0,1.9,0.1,3.5,0.3c1.4,0,2.4,0,3.1,0h22.2
			c0.9-2.1,1.9-3.6,2.8-4.5c0.5-0.2,0.9-0.3,1.4-0.3c0.2,0.2,0.7,0.6,1.4,1c4.9,2.5,8.1,4.5,9.7,5.9c-0.5,1.2-0.7,1.7-0.7,1.7
			c-1.6,0.2-3,0.7-4.2,1.4C373.8-1.8,369.9,4,364.8,9.1z M367.6-11.8H346c2.5,5.8,6.7,11.1,12.5,16C362.3-0.4,365.3-5.8,367.6-11.8z
			 M316.5,4.9v-28.2H312c-1.6,0.2-3.2,0.3-4.9,0.3l-2.4-2.8c0.5,0.2,2,0.5,4.5,0.7h5.2c0.2,0,1-0.8,2.4-2.4c0.5-0.5,0.8-0.8,1-1
			c0.5-0.5,1-0.7,1.7-0.7c1.9,0.9,4.4,2.7,7.6,5.2c0.5,0.7,0.5,1.3,0,1.7s-1.2,0.9-2.1,1.4c-0.2,0.2-0.3,0.3-0.3,0.3V8
			C331.9,3.4,337-0.1,340-2.4c0.7,0.5,1,0.8,1,1c-1.6,1.9-4.2,4.9-7.6,9c-3.9,4.9-7.8,9.6-11.5,14.3c-0.9,0.9-1.6,1-2.1,0.3
			c-1.6-1.9-3.2-4.2-4.9-7c-0.5-0.7-0.5-1.5,0-2.4C316.1,11.3,316.5,8.6,316.5,4.9z M312.7-54.2c8.3,1.4,13.6,4.1,15.6,8
			c1.2,3.5,0.3,6.1-2.4,8c-3.5,1.9-5.8,1.2-7-2.1c-0.5-0.5-0.7-1.3-0.7-2.4c0-0.9,0-1.6,0-2.1c-0.5-2.3-2.4-5-5.9-8
			c-0.5-0.2-0.7-0.6-0.7-1C311.9-54.1,312.2-54.2,312.7-54.2z"/>
		<path id="形状_00000179621202020131937200000011484314087231796667_" class="st3" d="M443.8,25.4l0.7-43.8h-13.9
			c-2.3,0-4.3,0-5.9,0l-1.7-2.4c0.9,0.2,1.9,0.3,2.8,0.3h18.8l0.3-19.5v-9l-0.3-5.6c0,0,0.2-0.1,0.7-0.3c5.3,0.9,9,1.9,11.1,2.8
			c0.2,0.5,0.2,0.9,0,1.4s-0.8,1-1.7,1.7c-0.2,0-0.3,0-0.3,0v28.5h8.3c3-4.4,5.1-7.1,6.3-8c0,0,0.5,0,1.4,0c4.2,3,7.6,5.7,10.4,8
			c0.5,0.9,0.3,1.6-0.3,2.1h-26.1v42.8c-0.5,1.9-2.5,3.1-6.3,3.8C445.1,28.4,443.8,27.5,443.8,25.4z M409,7.3v-30.6h-6.3h-6.3
			l-1.4-2.1c0.5,0.2,1.7,0.3,3.8,0.3h8c1.6-2.3,2.9-3.5,3.8-3.5c4.2,1.4,7.3,3,9.4,4.9c0,0.2-0.6,0.8-1.7,1.7s-1.6,1.4-1.4,1.4V10
			c8.8-6.3,14.3-10.1,16.3-11.5c0.7,0,1,0.3,1,1c-8.3,9.7-14.9,18.1-19.8,25c-0.2,0-0.7,0.1-1.4,0.3c-2.3-3-4.2-5.4-5.6-7.3
			c-0.5-0.7-0.5-1.4,0-2.1C408.3,13.8,408.8,11,409,7.3z M403.4-51.1c7.6-0.2,12.5,1.7,14.6,5.9c1.2,3.2,0.5,6-2.1,8.3
			c-2.3,1.9-4.6,1.5-7-1c-0.7-0.7-1.2-1.7-1.4-3.1c-0.5-3.7-2.1-6.6-4.9-8.7C402.3-50.2,402.5-50.6,403.4-51.1z"/>
		<path id="形状_00000147914881884239691250000011491110744473898668_" class="st3" d="M534.8-30.9v-8h-20.5v8
			C514.3-30.9,534.8-30.9,534.8-30.9z M534.8-21.2v-8h-20.5v8H534.8z M534.8-11.5v-8h-20.5v8H534.8z M538.7-9.4h-22.9
			c0.9,0.5,1.7,0.8,2.4,1c-0.2,0.2-0.3,0.7-0.3,1.4l-3.1,1.4c-7.2,9.3-17.5,17-30.9,23.3c-0.5,0.2-0.7-0.1-0.7-1
			c9.5-6.5,16.8-15.2,21.9-26.1h-14.3c-2.1,0-4.1,0-5.9,0l-1.7-2.4c0.9,0.2,2,0.3,3.1,0.3H506V-39h-11.5c-0.5,0.2-2.4,0.3-5.9,0.3
			l-1.7-2.4c0.9,0.2,1.9,0.3,2.8,0.3H506V-49l-0.3-4.5c0,0,0.1-0.1,0.3-0.3c2.3,0.2,4.4,0.5,6.3,0.7c1.9,0.2,3.4,0.5,4.5,0.7
			c0.2,0.2,0.2,0.7,0,1.4c-0.2,0.2-0.3,0.3-0.3,0.3c-0.7,0.9-1.4,1.5-2.1,1.7v8.3h20.5V-49l-0.3-4.5c0,0,0.1-0.1,0.3-0.3
			c2.1,0.2,4.1,0.5,5.9,0.7s3.5,0.5,4.9,0.7c0.2,0.2,0.2,0.7,0,1.4c-0.9,0.9-1.7,1.6-2.4,2.1v8.3h6.6c1.6-2.5,3.4-4.6,5.2-6.3
			c0.2-0.2,0.6-0.2,1,0c3,1.9,5.7,4.1,8,6.6c0.2,0.7,0.1,1.2-0.3,1.4h-20.5v27.5h10.1c0.2-0.2,1.2-1.3,2.8-3.1
			c1.4-1.6,2.3-2.7,2.8-3.1c-0.2,0,0.1,0,1,0c3.9,2.3,7,4.5,9,6.6c0.5,0.9,0.2,1.5-0.7,1.7h-28.2c5.6,8.6,15.1,12.9,28.5,12.9
			c0.5,0.5,0.6,0.8,0.3,1c-4.4,2.3-7.2,5.2-8.3,8.7c-0.5,0.5-0.8,0.7-1,0.7C548.6,9.5,541.7,1.8,538.7-9.4z M520.9,24.4V11.1h-9.7
			c-0.5,0.2-2.4,0.3-5.9,0.3L503.6,9c0.9,0.2,1.9,0.3,2.8,0.3H521V-2.8l-0.3-4.5c0,0,0.1-0.1,0.3-0.3c0.9,0.2,1.9,0.3,2.8,0.3
			c3.9,0.2,6.6,0.6,8,1c0.2,0.5,0.2,0.9,0,1.4c-0.5,0.7-1.3,1.4-2.4,2.1V9.4h7.3c0-0.2,0.2-0.5,0.7-0.7c1.9-2.5,3.2-4.2,4.2-4.9
			c0.2,0,0.5,0,0.7,0c2.8,2.3,4.9,4.4,6.3,6.3c0.2,0.7,0,1-0.7,1h-18.4v13.2h15.6c2.3-3.2,4.2-5.3,5.6-6.3c-0.2,0,0.1,0,1,0
			c3.2,2.1,5.8,4.3,7.6,6.6c0.5,0.7,0.3,1.2-0.3,1.4h-61.5c-0.5,0-2.4,0.1-5.9,0.3l-1.7-2.4c0.9,0,1.9,0.1,2.8,0.3h28.2V24.4z"/>
		<path id="形状_00000012454212202703903090000005502984450335696041_" class="st3" d="M587-17.7V8.4h7.3v-26.1H587z M587-19.5
			h6.3c0.9-1.4,1.7-2.3,2.4-2.8c0.2-0.2,0.6-0.2,1,0c2.5,1.4,4.9,2.9,7,4.5c0,0.2,0,0.5,0,0.7s-0.5,0.6-1.4,1
			c-0.5,0.2-0.7,0.3-0.7,0.3l1,32.3c-4.6,2.5-7.4,2.5-8.3,0V9.9H587v8.7c-2.5,3.9-5.1,4.3-7.6,1l1-34.4c-2.1,3-4.3,5.7-6.6,8
			c-0.7,0.7-1.2,0.5-1.4-0.7c5.1-8.6,9.3-20.4,12.5-35.5h-4.2c-0.5,0.2-2.4,0.3-5.9,0.3l-1.7-2.4c0.9,0.2,1.9,0.3,2.8,0.3h16.3
			c2.3-3,4.2-5.1,5.6-6.3c-0.2,0,0.1,0,1,0c2.8,1.6,5.3,3.8,7.6,6.6c0.5,0.9,0.3,1.4-0.3,1.4h-9c0.2,1.2-0.7,2.2-2.8,3.1
			c-3,6.5-6.4,12.9-10.1,19.1C584.9-20,585.8-19.7,587-19.5z M627,22.6v-36.5h-11.5c-0.5,0.9-0.9,1.5-1.4,1.7
			c-0.7,0.5-1.2,0.5-1.4,0c-0.5,0-1.5-0.7-3.1-2.1c-1.9-1.4-2.9-2.2-3.1-2.4c-0.2-0.7-0.2-1.2,0-1.4l2.4-2.4v-20.2l-0.3-5.6
			c0,0,0.1-0.1,0.3-0.3c3.5,0.5,6.6,1.2,9.4,2.1c0.2,0.5,0.2,0.8,0,1c-0.2,0.5-0.6,0.9-1,1.4c-0.5,0.2-0.7,0.3-0.7,0.3v26.1H627V-49
			l-0.7-5.6c0,0,0.1-0.1,0.3-0.3c3.9,0.2,7.1,0.8,9.4,1.7c0.5,0.2,0.6,0.7,0.3,1.4c-0.7,0.7-1.4,1.3-2.1,1.7v34.4H645v-26.1
			l-0.3-4.2c0-0.2,0.2-0.3,0.7-0.3c2.5,0.5,5.9,1.4,10.1,2.8c0,0.2,0,0.5,0,0.7c-0.2,0.2-0.9,0.8-2.1,1.7l0.7,27.1
			c-4.4,3.7-7.4,3.7-9,0h-10.8v36.5h12.9V-2.8c-0.2-0.2-0.5-0.8-0.7-1.7c-0.2-0.7-0.3-1.3-0.3-1.7s0.3-0.8,1-1c3,0.5,6.1,1,9.4,1.7
			c0.5,0.5,0.6,0.8,0.3,1c-0.2,0.5-0.6,0.8-1,1c-0.5,0.5-0.6,1-0.3,1.7l0.7,26.1c-0.7,1.4-2.7,2.2-5.9,2.4c-2.1,0-3.1-0.8-3.1-2.4
			h-33.4c-0.5,0.7-0.9,1.4-1.4,2.1c-0.7,0.5-1.3,0.5-1.7,0l-6.3-4.5c-0.2-0.2-0.3-0.6-0.3-1c0-0.2,0.1-0.3,0.3-0.3l2.8-1.7V-1.7
			L607-7.3c-0.2,0-0.1-0.1,0.3-0.3c3.5,0.5,6.6,1.2,9.4,2.1c0,0.7,0,1,0,1c-0.2,0.5-0.8,1-1.7,1.7c-0.2,0-0.3,0-0.3,0v25.4
			C614.7,22.6,627,22.6,627,22.6z"/>
		<path id="形状_00000102525610706980456160000007977433230454063030_" class="st3" d="M693-3.8h-11.5L676,7
			c3.7-0.2,7.4-0.1,11.1,0.3C689.4,3.8,691.4,0.1,693-3.8z M671.8-3.8h-2.1c-0.5,0.2-2.4,0.3-5.9,0.3l-1.7-2.4
			c0.9,0.2,1.9,0.3,2.8,0.3h7.6c2.5-4.9,4.3-8.3,5.2-10.4c0.2-0.5,0.8-0.6,1.7-0.3c0.7,0.5,1.6,0.8,2.8,1c-0.7-0.2-0.9-0.7-0.7-1.4
			V-25c-7.4,7-13.6,11.7-18.4,14.3c-0.7-0.2-0.9-0.6-0.7-1c5.3-5.3,10-12.2,13.9-20.5h-5.9c-1.9,0-3.7,0-5.6,0l-1.7-2.4
			c-0.2,0.2,0.7,0.3,2.8,0.3h15.6v-21.2c0.2-0.2,0.5-0.5,0.7-0.7c5.8,1.2,9.2,2,10.1,2.4c0.2,0.2,0.2,0.7,0,1.4
			c-0.9,0.5-1.7,1-2.4,1.7v16.3h8c0.5-0.5,1-1,1.7-1.7c1.4-1.9,2.4-3,3.1-3.5c0.2-0.2,0.5-0.2,0.7,0c2.8,2.3,4.8,4.3,5.9,5.9
			c0,0.2,0,0.5,0,0.7c0,0.5-0.1,0.7-0.3,0.7h-19.1v14.6c-1.4,2.1-3.7,3-7,2.8c1.6,0.7,3.1,1.4,4.5,2.1c0.2,0.5,0.3,0.8,0.3,1
			c-0.2,0.5-0.7,0.8-1.4,1c-0.9,0.2-1.4,0.5-1.4,0.7l-2.4,4.5h9.7c0.2-0.9,0.9-2,2.1-3.1c0.5,0,0.8,0,1,0c3.9,2.1,6.7,3.8,8.3,5.2
			c0,0.2,0.1,0.7,0.3,1.4c-0.5,0-1.4,0.5-2.8,1.4c-0.2,0-0.3,0-0.3,0c-1.4,3.5-3.5,6.7-6.3,9.7c0.9,0.2,1.7,0.5,2.4,0.7
			c5.3,3,6.7,6.4,4.2,10.1c-3,2.5-6.6,1.5-10.8-3.1c-0.2-0.2-0.8-0.8-1.7-1.7c-7.2,5.3-15.6,9-25.4,11.1c-0.2-0.2-0.3-0.5-0.3-0.7
			c7.9-3.9,14.7-8.7,20.5-14.3c-2.3-0.9-5-1.9-8-2.8c-4.2,1.6-7.1,1.4-8.7-0.7c-0.5-0.7-0.6-1.2-0.3-1.4
			C668.2,2.8,670-0.6,671.8-3.8z M668.3-51.8c4.6,1.2,7.9,3.6,9.7,7.3c1.4,3.7,0.8,6.4-1.7,8c-3.2,0.9-5.1-0.6-5.6-4.5
			c-0.2-1.9-0.5-3.7-0.7-5.6c-0.7-1.6-1.5-3-2.4-4.2C667.4-51,667.6-51.3,668.3-51.8z M698.2-53.5c4.9,2.1,7.6,3.5,8.3,4.2
			c0,0.9-0.1,1.3-0.3,1c-0.5,0.5-1.3,0.7-2.4,0.7c-2.3,2.1-6,6-11.1,11.8c-0.5,0.5-0.9,0.6-1.4,0.3c-0.5,0-0.5-0.3,0-1
			c0.5-1.9,2.4-7.5,5.9-17C697.7-53.5,698-53.5,698.2-53.5z M703.8-25.4c3.2,2.8,3.8,5.6,1.7,8.3c-3.2,2.3-5.8,1.5-7.6-2.4
			c-0.2-0.2-0.5-0.6-0.7-1c-0.5-1.4-0.8-2.4-1-3.1c-1.4-1.6-3.1-3-5.2-4.2c-0.5-0.2-0.5-0.6,0-1C695.8-28.8,700.1-27.7,703.8-25.4z
			 M726.8,6.6h-0.3c3.7,3.9,10.2,7.4,19.5,10.4c0.2,0.5,0.2,0.8,0,1c-3.5,1.2-6.3,3.7-8.3,7.6c-0.5,0.5-0.9,0.6-1.4,0.3
			c-6-3.9-10.8-8.2-14.3-12.9c-6.7,7.4-15.8,12.5-27.1,15.3c-0.9-0.2-1.2-0.7-0.7-1.4c10.4-3.9,18.4-10.5,24-19.8
			c-3.7-7.2-5.7-15.9-5.9-26.1c-2.3,3.9-4.6,7.4-7,10.4c-0.9,0-1.3-0.3-1-1c6-11.4,9.7-26.5,11.1-45.5c0.2-0.5,0.6-0.7,1-0.7
			c4.4,1.2,8.5,2.4,12.2,3.8c0.5,0.9,0.6,1.4,0.3,1.4c-0.7,0.7-1.7,1.4-3.1,2.1c-2.3,6.5-4.8,12.4-7.3,17.7h15.6
			c2.5-3.2,4.4-5.3,5.6-6.3c0.2,0,0.6,0,1,0c4.2,3.2,6.7,5.4,7.6,6.6v1.4h-17.4c4.2,1.4,6.8,2.4,8,3.1c0.2,0.5,0.2,0.9,0,1.4
			c-0.9,0.2-1.9,0.8-2.8,1.7C734.1-10.8,730.9-1,726.8,6.6z M713.2-20.8h0.3c1.6,9.3,4.2,16.5,7.6,21.6c3.2-7.9,5.3-17.7,6.3-29.6
			h-10.1C716.2-26.1,714.8-23.4,713.2-20.8z"/>
		<path id="形状_00000069357481215223720640000011718596704749438081_" class="st3" d="M790.7-46.2v15.6h27.8v-15.6H790.7z
			 M799.1,2.8v17h20.5v-17C819.6,2.8,799.1,2.8,799.1,2.8z M790.4,25.4l0.3-22.6v-5.6c3.2,0.9,6,2.2,8.3,3.8h4.5c0-1.4,0-3.1,0-5.2
			c0.2-1.9,0.3-4.5,0.3-8h-11.1h-2.4c-1.6,15.8-7.5,28.9-17.7,39.3c-0.5,0.2-0.9,0.2-1.4,0c-0.2-0.2-0.2-0.6,0-1
			c7.2-9.3,10.7-24.6,10.4-45.9v-24.7c-0.2-2.3-0.6-4.3-1-5.9c-0.2-1.4-0.2-2.2,0-2.4c2.3,0.7,5.7,2.2,10.1,4.5h26.8
			c0.2,0,0.8-0.6,1.7-1.7c0.7-1.2,1.3-1.9,1.7-2.1c0.5,0,0.9,0,1.4,0c2.8,1.4,5.6,3.2,8.3,5.6c0.2,0.2,0.2,0.6,0,1l-2.8,2.1
			l0.3,14.6c-4.9,4.6-8.1,4.8-9.7,0.3v-0.3h-27.8v8.3c0,2.5-0.1,4.8-0.3,6.6h13.6c0-2.3,0-5.4,0-9.4c0-1.4,0-2.7,0-3.8
			c-0.2-0.2,0-0.6,0.7-1c3.2,0.7,6.5,1.6,9.7,2.8c0.5,0.9,0.6,1.5,0.3,1.7c-0.5,0.5-1,0.9-1.7,1.4c-0.5,0.2-0.7,0.3-0.7,0.3
			c-0.5,2.8-0.6,5.4-0.3,8h9.4c2.1-2.8,3.8-4.9,5.2-6.3c0,0,0.2,0,0.7,0c0.2,0,0.5,0,0.7,0c3,2.1,5.6,4.3,7.6,6.6
			c0.2,0.9,0.1,1.4-0.3,1.4h-23.3c0,4.4,0,8.8,0,13.2h6.6c0.9-1.4,2-2.7,3.1-3.8c0.2-0.2,0.6-0.3,1-0.3c1.4,0.9,3.6,2.4,6.6,4.5
			c0.5,0.5,1,0.8,1.7,1c0.2,0.2,0.2,0.6,0,1c-0.5,0.5-1,0.9-1.7,1.4c-0.5,0.2-0.7,0.3-0.7,0.3l0.7,19.1c-0.5,1.9-2.4,3.1-5.9,3.8
			c-2.5,0.2-3.8-0.7-3.8-2.8v-3.8H799v2.8c-0.5,1.9-2.2,3.1-5.2,3.8C791.3,28.4,790.1,27.5,790.4,25.4z M780.3-17.7
			c-1.4,0.9-2.8,1.7-4.2,2.4c-2.5,1.6-4.4,2.8-5.6,3.5l0.7,29.6c0.5,6-2.9,9.6-10.1,10.8c-0.9-0.5-1.4-0.8-1.4-1
			c-0.2-4.6-3.1-7.8-8.7-9.4c-0.9-0.5-0.8-1,0.3-1.7c7.4,1.2,11,0.5,10.8-2.1V-6.2c-2.5,1.9-5,3.5-7.3,4.9c-0.9,0.7-1.4,0.7-1.4,0
			c-0.9-3.2-1.9-6.6-2.8-10.1c0-0.5,0.3-0.8,1-1c3-0.7,6.5-1.4,10.4-2.1v-14.9h-3.5c-2.3,0-4.3,0-5.9,0l-1.7-2.4
			c0.9,0.2,1.9,0.3,2.8,0.3h8.3V-50l-0.7-4.5l0,0c0,0.2,0.1,0.1,0.3-0.3c4.2,0.7,7.6,1.5,10.4,2.4c0.2,0.2,0.2,0.7,0,1.4
			c-0.2,0.2-0.9,0.6-2.1,1v18.4c0.2-0.2,0.6-0.6,1-1c1.4-1.9,2.4-3,3.1-3.5c0.2-0.2,0.6-0.2,1,0c1.2,1.2,3.1,2.9,5.9,5.2
			c0.2,0.7,0,1.2-0.7,1.4h-10.4v3.5l0.3,9.7c3-0.9,6.1-1.7,9.4-2.4C780.4-18.3,780.5-17.9,780.3-17.7z"/>
		<path id="形状_00000047052696839279576510000016827660415970066366_" class="st3" d="M889.1-32.3V-50c-0.2-0.7-0.5-1.6-0.7-2.8
			c-0.5-1.6-0.6-2.5-0.3-2.8c6.5,0.2,10.9,1.3,13.2,3.1c0,0.5-0.6,1.2-1.7,2.1c-0.2,0.2-0.3,0.3-0.3,0.3v17.7h5.9c0,0,0-0.1,0-0.3
			c2.8-3.7,4.8-6,5.9-7c0.2-0.2,0.6-0.2,1,0c5.8,3.5,9.2,6,10.1,7.6c0.2,0.9,0,1.4-0.7,1.4h-22.2v26.8h8.3c3-4.4,5.1-7.1,6.3-8
			c0,0,0.5,0,1.4,0c4.2,3,7.6,5.7,10.4,8c0.5,0.9,0.3,1.6-0.3,2.1h-78.6c-2.1,0-4.1,0-5.9,0L839-4.2c0.9,0.2,2,0.3,3.1,0.3H864
			v-26.8h-14.6c-2.1,0.2-4.1,0.3-5.9,0.3l-1.7-2.4c0.9,0.2,2,0.3,3.1,0.3H864V-50c-0.2-0.7-0.5-1.6-0.7-2.8
			c-0.5-1.6-0.6-2.5-0.3-2.8c6.5,0.2,10.9,1.3,13.2,3.1c0,0.5-0.6,1.2-1.7,2.1c-0.2,0.2-0.3,0.3-0.3,0.3v17.7h14.9V-32.3z
			 M889.1-3.8v-26.8h-14.9v26.8C874.2-3.8,889.1-3.8,889.1-3.8z M868.9,1.1c0.9,0.5,3.4,1.9,7.3,4.2c1.9,0.9,3.2,1.6,4.2,2.1
			c0,0.5,0,0.8,0,1c-1.2,0.7-2.3,1.2-3.5,1.4c-0.9,0-1.5,0.3-1.7,1c-12.1,8.8-23.4,14.3-34.1,16.3c-0.5-0.5-0.6-0.7-0.3-0.7
			c10.2-5.3,19.1-13.7,26.8-25C867.8,0.9,868.2,0.8,868.9,1.1z M888.4,3.1C902.1,5,911.6,9,916.9,15.3c2.1,2.8,2.4,5.6,1,8.3
			c-2.1,3.5-4.4,4.4-7,2.8c-1.4-1.2-3.4-3.6-5.9-7.3c-5.8-7.9-11.5-13-17-15.3C887.1,3.6,887.3,3.4,888.4,3.1z"/>
		<path id="形状_00000094611288817609632990000001642759184532195744_" class="st3" d="M934-41.7h61.5c1.9-3,4.1-5.8,6.6-8.3
			c0.2,0,0.6,0,1,0c5.1,3.5,8.6,6.1,10.4,8c0.5,1.2,0.3,1.9-0.3,2.1h-74.7c-2.1,0.2-4.1,0.3-5.9,0.3l-1.7-2.4
			C931.8-41.8,932.8-41.7,934-41.7z M956.9-31.6v12.2h27.5v-12.2C984.4-31.6,956.9-31.6,956.9-31.6z M976.4,1.1v5.6h20.5
			c0,0,0-0.1,0-0.3c2.8-3.7,4.8-6,5.9-7c0.2-0.2,0.6-0.2,1,0c5.8,3.5,9.2,6,10.1,7.6c0.2,0.9,0,1.4-0.7,1.4h-36.9v5.9
			c0,1.2,0,2.9,0,5.2c0.2,2.3,0.3,3.8,0.3,4.5c-1.2,2.5-5,4.3-11.5,5.2c-0.5,0-0.9-0.3-1.4-1c-2.3-4.6-6-7.6-11.1-9
			c-0.5-0.2-0.7-0.6-0.7-1c0.2,0,0.6,0,1,0c7.2,1.2,11.5,1.2,12.9,0V8.4h-28.5c-1.9,0.2-3.7,0.3-5.6,0.3l-2.1-2.4
			c0.9,0.2,2,0.3,3.1,0.3h33V0c-0.2-0.2-0.5-0.8-0.7-1.7s-0.3-1.6-0.3-2.1s0.2-0.8,0.7-1c2.1,0.2,5.3,0.8,9.7,1.7c0.9,0,1.6,0,2.1,0
			c1.6-1.6,3.4-3.4,5.2-5.2h-34.1C946.7-8.1,944.8-8,943-8l-2.1-2.4c0.9,0.2,2,0.3,3.1,0.3h38.6c0.7-0.9,2.1-2.2,4.2-3.8
			c-1.6-0.2-2.4-1.2-2.4-2.8v-1h-27.5v2.1c-4.6,3.2-7.8,3.2-9.4,0v-13.9c-0.2-2.5-0.6-4.6-1-6.3c-0.2-1.4-0.2-2.2,0-2.4
			c2.3,0.7,5.8,2.3,10.4,4.9h26.8c1.9-2.3,3.1-3.6,3.8-3.8c5.6,1.9,9,3.8,10.4,5.9c-0.2,0.5-1,1.2-2.4,2.1c-0.5,0.2-0.7,0.3-0.7,0.3
			v12.2c-0.5,1.6-2.5,2.7-6.3,3.1c2.1,0.9,6,3.2,11.8,7c-0.2,0.7-0.3,1-0.3,1c-0.9,0.2-2.3,0.3-4.2,0.3C994-5,992.7-4.9,992-4.9
			c-4.6,0.9-9.9,2.5-15.6,4.9C976.1,0.5,976.1,0.8,976.4,1.1z M960.7-57c9.7,0.2,15.3,2.9,16.7,8c0.2,3-1,5.2-3.8,6.6
			c-3.2,1.2-5.4,0.6-6.6-1.7c-0.5-0.5-0.8-1.4-1-2.8c-0.9-4.2-2.8-7.1-5.6-8.7C959.9-56.3,960-56.8,960.7-57z"/>
		<path id="形状_00000085947803104631397790000000798416934144431000_" class="st3" d="M1053.9,10.8V-3.8h-28.2
			c-0.5,0.2-2.4,0.3-5.9,0.3l-1.7-2.4c0.9,0.2,1.9,0.3,2.8,0.3h33v-40h-23.6c-2.1,0.2-4.1,0.3-5.9,0.3l-1.7-2.4
			c0.9,0.2,2,0.3,3.1,0.3h54.6c0,0,0-0.1,0-0.3c2.8-3.7,4.8-6,5.9-7c0.2,0,0.6,0,1,0c5.8,3.5,9.2,6,10.1,7.6c0.2,0.9,0,1.4-0.7,1.4
			h-30.2c-0.2,1.2-0.9,2.1-2.1,2.8v37.2h22.6c0,0,0-0.1,0-0.3c2.8-3.7,4.8-6,5.9-7c0,0,0.3,0,1,0c5.8,3.5,9.2,6,10.1,7.6
			c0.2,0.9,0,1.4-0.7,1.4h-38.9V8.7c0,4.4,0,9.7,0,16c-0.2,1.2-1.7,2.1-4.5,2.8c-3.5,0.7-5.4,0.7-5.9,0c-0.5-1.2-0.6-4.3-0.3-9.4
			C1053.5,16.2,1053.7,13.8,1053.9,10.8z M1029.9-34.4c9.3,3,14.5,7.8,15.6,14.3c0.2,3.7-1.3,6.4-4.5,8c-3.7,1.4-6.3,0.5-7.6-2.8
			c-0.7-0.7-0.8-2.4-0.3-5.2c0.5-5.6-0.7-10-3.5-13.2C1029.1-33.6,1029.2-33.9,1029.9-34.4z M1082.4-35.8c2.1,1.2,5.9,3.2,11.5,6.3
			c0,0.2,0,0.6,0,1c-0.5,0.2-1.2,0.5-2.1,0.7s-1.5,0.3-1.7,0.3c-8.1,7.4-14.8,13.2-20.2,17.4c-0.7-0.2-0.9-0.5-0.7-0.7
			c4.9-8.8,8.7-17.2,11.5-25C1080.9-36,1081.5-36,1082.4-35.8z"/>
		<path id="形状_00000050642764698521831150000007710651060220106627_" class="st3" d="M1132.1-4.5v23.3h34.1V-4.5H1132.1z
			 M1122.7,26.4V-3.8c0-0.5-0.1-1.3-0.3-2.4c0-1.4,0-2.5,0-3.5c0-0.2,0.3-0.5,1-0.7c0.2,0.2,0.6,0.5,1,0.7c2.3,1.4,4.4,2.4,6.3,3.1
			h33.7c1.4-1.6,2.4-2.8,3.1-3.5c0.2-0.2,0.7-0.2,1.4,0c2.3,1.2,5.3,2.9,9,5.2c0.2,0.2,0.6,0.3,1,0.3c0,0.7,0.1,1,0.3,1
			c-0.5,0.5-1.2,0.9-2.1,1.4c-0.5,0.2-0.8,0.3-1,0.3l0.7,28.2c-6.5,3.5-10.1,3.5-10.8,0v-5.9h-34.1v4.9c-0.9,1.4-3,2.3-6.3,2.8
			C1123.8,28.4,1122.7,27.8,1122.7,26.4z M1125.5-26.1l47.3-3.1c-2.1-2.5-5.6-5.2-10.4-8c-0.7,0-1-0.3-1-1c0.2-0.5,0.8-0.7,1.7-0.7
			c9.3,1.4,16.6,4.2,21.9,8.3c4.9,4.9,5.3,9.6,1.4,14.3c-4.4,2.8-7.9,0.6-10.4-6.6c-0.2,0-0.5-0.2-0.7-0.7c-0.2-1.2-0.5-2-0.7-2.4
			c-2.3,0.5-4.5,0.9-6.6,1.4c-23.4,3.9-40.6,7.3-51.5,10.1c-0.9,0.5-1.4,0.2-1.4-0.7c-0.5-0.7-1.2-2-2.1-3.8
			c-1.6-3.5-2.5-5.7-2.8-6.6c-0.2-0.7-0.1-1.2,0.3-1.4c9.3-1.2,19.1-10.8,29.6-28.9c0.2-0.5,0.6-0.7,1-0.7c3,1.4,7.5,3.5,13.6,6.3
			c0.2,0.7,0.2,1.3,0,1.7c-1.2,0.5-2.2,0.8-3.1,1c-1.6,0.2-2.7,0.5-3.1,0.7C1137.8-36.3,1130.1-29.3,1125.5-26.1z"/>
	</g>
</g>
</svg>
